<svg width="39" height="39" viewBox="0 0 39 39" fill="none" xmlns="http://www.w3.org/2000/svg">
<path d="M25.2 19.2C25.2 20.7913 24.5679 22.3174 23.4426 23.4426C22.3174 24.5679 20.7913 25.2 19.2 25.2C17.6087 25.2 16.0826 24.5679 14.9574 23.4426C13.8321 22.3174 13.2 20.7913 13.2 19.2C13.2 18.858 13.236 18.524 13.298 18.2H11.2V26.194C11.2 26.75 11.65 27.2 12.206 27.2H26.196C26.4625 27.1995 26.7178 27.0932 26.9061 26.9046C27.0943 26.716 27.2 26.4605 27.2 26.194V18.2H25.102C25.164 18.524 25.2 18.858 25.2 19.2V19.2ZM19.2 23.2C19.7254 23.1999 20.2457 23.0962 20.731 22.8951C21.2164 22.6939 21.6574 22.399 22.0288 22.0274C22.4003 21.6558 22.6949 21.2147 22.8958 20.7292C23.0968 20.2437 23.2001 19.7234 23.2 19.198C23.1999 18.6726 23.0962 18.1523 22.8951 17.667C22.6939 17.1816 22.399 16.7406 22.0274 16.3692C21.6558 15.9977 21.2147 15.7031 20.7292 15.5022C20.2437 15.3012 19.7234 15.1979 19.198 15.198C18.1369 15.1983 17.1193 15.6201 16.3692 16.3706C15.619 17.1211 15.1977 18.1389 15.198 19.2C15.1983 20.2611 15.6201 21.2787 16.3706 22.0288C17.1211 22.779 18.1389 23.2003 19.2 23.2V23.2ZM24 15H26.398C26.5573 15 26.7101 14.9369 26.823 14.8244C26.9358 14.7119 26.9995 14.5593 27 14.4V12.002C27 11.8423 26.9366 11.6892 26.8237 11.5763C26.7108 11.4634 26.5577 11.4 26.398 11.4H24C23.8403 11.4 23.6872 11.4634 23.5743 11.5763C23.4614 11.6892 23.398 11.8423 23.398 12.002V14.4C23.4 14.73 23.67 15 24 15V15ZM19.2 0C14.1078 0 9.22425 2.02285 5.62355 5.62355C2.02285 9.22425 0 14.1078 0 19.2C0 24.2922 2.02285 29.1758 5.62355 32.7765C9.22425 36.3771 14.1078 38.4 19.2 38.4C21.7214 38.4 24.2181 37.9034 26.5475 36.9385C28.877 35.9736 30.9936 34.5593 32.7765 32.7765C34.5593 30.9936 35.9736 28.877 36.9385 26.5475C37.9034 24.2181 38.4 21.7214 38.4 19.2C38.4 16.6786 37.9034 14.1819 36.9385 11.8525C35.9736 9.52303 34.5593 7.40643 32.7765 5.62355C30.9936 3.84066 28.877 2.4264 26.5475 1.46151C24.2181 0.496623 21.7214 0 19.2 0V0ZM29.2 26.978C29.2 28.2 28.2 29.2 26.978 29.2H11.422C10.2 29.2 9.2 28.2 9.2 26.978V11.422C9.2 10.2 10.2 9.2 11.422 9.2H26.978C28.2 9.2 29.2 10.2 29.2 11.422V26.978V26.978Z" fill="white"/>
</svg>
